<?xml version="1.0" encoding="UTF-8"?>
<svg width="1386px" height="1384px" viewBox="0 0 1386 1384" version="1.1" xmlns="http://www.w3.org/2000/svg" xmlns:xlink="http://www.w3.org/1999/xlink">
    <!-- Generator: Sketch 52.4 (67378) - http://www.bohemiancoding.com/sketch -->
    <title>Group</title>
    <desc>Created with Sketch.</desc>
    <g id="Page-1" stroke="none" stroke-width="1" fill="none" fill-rule="evenodd">
        <g id="Group" transform="translate(1.000000, 0.000000)">
            <circle id="Oval" stroke="#0057B8" stroke-width="16" fill="#FFFFFF" fill-rule="nonzero" cx="692" cy="692" r="684"></circle>
            <path d="M44.62211,937.000006 C15.7842368,860.840343 0,778.263475 0,692 C0,588.44621 22.7458248,490.204992 63.5138508,401.999969 L1320.48616,402 C1361.25418,490.204992 1384,588.44621 1384,692 C1384,778.263475 1368.21576,860.840343 1339.37789,937.000006 L44.6221078,937 Z" id="Combined-Shape" stroke="#979797" fill="#0057B8" fill-rule="nonzero"></path>
            <g id="heart" transform="translate(449.000000, 203.000000)">
                <path d="M242.556033,69.364696 C265.174864,22.6381608 309.927296,-8 360.130842,-8 C433.75213,-8 493.112,57.236233 493.112,137.353877 C493.112,172.627507 479.230817,207.912689 453.670152,242.865539 C432.337628,272.03663 403.403173,300.275151 368.755033,327.307577 C341.919409,348.24469 313.204781,367.275275 284.492091,384.056378 C274.441788,389.930268 265.104627,395.106172 256.716506,399.539467 C253.772586,401.095389 251.154844,402.448629 248.892797,403.593562 C248.09621,403.996754 247.399657,404.345737 246.80683,404.639807 C246.44427,404.819653 246.192842,404.943164 246.056237,405.009632 L242.556,406.712757 L239.055763,405.009632 C238.919158,404.943164 238.66773,404.819653 238.30517,404.639807 C237.712343,404.345737 237.01579,403.996754 236.219203,403.593562 C233.957156,402.448629 231.339414,401.095389 228.395494,399.539467 C220.007373,395.106172 210.670212,389.930268 200.619909,384.056378 C171.907219,367.275275 143.192591,348.24469 116.356967,327.307577 C81.7088267,300.275151 52.7743718,272.03663 31.441848,242.865539 C5.88118294,207.912689 -8,172.627507 -8,137.353877 C-8,57.236233 51.3598702,-8 124.981158,-8 C175.185783,-8 219.937311,22.6377248 242.556033,69.364696 Z" id="Path" stroke="#FFFFFF" stroke-width="16" fill="#0057B8"></path>
                <path d="M470.602789,199 C418.307135,312.300014 242.556,397.816 242.556,397.816 C242.556,397.816 66.8048655,312.300014 14.5092111,199 L470.602789,199 Z" id="Combined-Shape" fill="#FFD700"></path>
            </g>
            <g id="hand" transform="translate(312.000000, 356.000000)" fill="#0057B8" stroke="#FFFFFF" stroke-linecap="round" stroke-width="16">
                <path d="M165.816109,608.485881 C165.72668,608.427978 165.641874,608.373343 165.56146,608.321821 C158.738317,610.242215 147.372615,609.608003 140.943418,606.865774 C129.26186,602.045965 119.904896,589.519241 118.555888,576.971409 C118.220947,573.855947 118.489218,568.35686 119.105054,564.136988 L119.134779,563.948983 C119.61552,561.126511 120.189996,556.791519 120.509706,553.823647 C120.700639,551.387414 121.392217,546.000188 122.175462,540.603334 C123.277162,532.407851 124.324777,524.690332 124.699878,522.021921 C124.736243,521.519875 124.814748,520.916695 124.962146,519.844907 C125.021972,519.409887 125.090928,518.92109 125.187343,518.245884 C125.207916,518.101812 125.385554,516.861193 125.438563,516.489085 C125.438612,516.488738 125.438612,516.488738 125.444614,516.447367 C125.495774,516.101088 125.860048,513.661463 125.9884,512.795513 C126.265575,510.925512 126.511449,509.238136 126.744753,507.593585 C126.825287,507.025911 126.903008,506.472416 126.977868,505.933108 C127.130604,504.832765 127.270451,503.798544 127.398645,502.818191 C128.072094,497.75199 128.818177,492.501285 129.127529,490.666581 C129.2012,490.087965 129.389532,488.626682 129.426441,488.337949 C129.602503,486.960672 129.755764,485.730131 129.901799,484.507049 C129.98215,483.834092 130.057602,483.185411 130.12792,482.561343 C130.183944,482.064133 130.236456,481.584775 130.293079,481.053502 C131.045678,474.508151 132.420686,464.988733 133.443177,459.119015 L133.469428,458.968314 L133.501422,458.818727 C133.621676,458.256478 133.820541,456.757335 134.589452,450.692284 C134.627455,450.392668 134.630924,450.36532 134.662707,450.115365 C135.096453,446.044155 135.869084,440.322875 136.420228,437.076696 C136.48625,436.626684 136.545943,436.221103 136.67139,435.369598 C137.191487,431.839274 137.394144,430.435172 137.49709,429.608943 L137.521615,429.428814 C138.137396,425.260914 141.041534,407.24811 141.919235,402.450821 C142.06617,401.522298 142.260659,400.353513 142.735073,397.52813 C142.977129,396.086564 143.081452,395.463862 143.200135,394.750037 C148.216918,364.6644 153.090615,348.346566 161.734893,333.163655 C166.018944,325.686835 172.673644,318.710019 199.59645,293.187271 C208.489748,284.816119 216.630456,277.090588 217.968281,275.752543 L218.05603,275.66612 C220.397756,273.395034 226.736251,267.332195 237.055849,257.483248 C237.074965,257.465004 237.074965,257.465004 237.094081,257.44676 C240.183136,254.498598 250.066066,245.069791 249.917621,245.211435 C254.098411,241.222182 256.214791,239.200347 256.791485,238.643463 L256.913065,238.528492 C263.714337,232.230354 287.679191,209.551161 296.670396,200.908084 C299.443001,198.267172 303.356168,194.507151 309.532115,188.556688 C309.557816,188.531925 309.557816,188.531925 309.583518,188.507162 C310.317136,187.800323 311.071136,187.073724 312.049823,186.130516 C313.270799,184.953779 313.950653,184.298557 314.467491,183.800471 C316.398116,181.939897 317.73471,180.652263 318.973055,179.46021 C343.265475,156.152857 347.600277,151.384417 350.838874,144.902374 C353.559422,139.457205 354.747662,135.967647 356.65818,127.708822 C356.664564,127.643045 356.671884,127.562304 356.679785,127.46861 C356.719208,127.001103 356.76379,126.325154 356.811066,125.46806 C356.907623,123.717545 357.011803,121.281975 357.117864,118.30082 C357.330396,112.32701 357.540588,104.446623 357.707026,96.1747789 C357.892314,86.9661159 360.746842,79.7770648 365.529035,74.6649935 C366.177263,73.9720496 366.844603,73.3350654 367.526392,72.7508638 C367.118945,72.2784953 367.51907,72.0410489 370.860877,70.356814 C371.015206,70.2652465 371.169863,70.1758977 371.324801,70.0887358 C372.051371,69.6799968 372.739371,69.3448544 373.398034,69.0640288 C373.451224,69.0413509 373.502446,69.0197645 373.552354,68.9989756 C373.595848,68.9769265 373.639627,68.9547251 373.683694,68.9323702 C373.772441,68.8873486 373.866308,68.8407711 373.964976,68.7927766 C373.9251,68.8161086 373.870186,68.8507109 373.795501,68.8997145 C373.867337,68.8709799 373.938682,68.8429464 374.011826,68.8145878 C374.089471,68.784515 374.089471,68.784515 374.046166,68.8015429 C374.060679,68.771333 374.071878,68.7480228 374.048082,68.7525629 C374.275465,68.6430978 374.526597,68.5266878 374.797888,68.4049039 C375.757688,67.9740457 376.946502,67.4856107 378.302729,66.9734475 C381.899686,65.6150992 386.213193,64.2550683 391.140511,63.0032225 C404.877905,59.5130681 420.954999,57.4308576 439.134405,57.4379221 L518.501565,57.4687639 L519.953479,67.0290203 C520.104824,67.9257638 520.762693,72.0271092 520.992842,73.3833318 C521.13129,74.1991751 521.261244,74.9378459 521.384196,75.6043214 C521.38493,75.6083 521.38493,75.6083 521.385663,75.6122768 L521.407086,75.7283525 L521.425074,75.8450096 C521.536544,76.5674614 521.597194,76.9606051 521.650428,77.3064494 C521.673189,77.4543526 521.673189,77.4543526 521.695961,77.602495 C522.298859,81.5257413 522.587381,83.5553272 522.690319,84.8928532 C522.95393,87.0416892 523.857638,93.1486077 524.68181,98.083272 L524.698927,98.1902122 C524.828402,99.0355307 524.828402,99.0355307 524.958768,99.8867297 C524.974203,99.9875454 524.974203,99.9875454 524.989641,100.088384 C526.218964,108.118843 526.732965,111.656753 526.903792,113.618698 C526.983222,114.269297 527.105548,115.212923 527.289235,116.598757 C527.372398,117.226188 527.762783,120.153415 527.868318,120.949322 C527.898728,121.178746 527.898728,121.178746 527.92913,121.408498 C528.088827,122.615853 528.223671,123.648233 528.346632,124.608924 C530.31153,140.282741 531.081283,152.312786 531.34652,171.896338 C531.619412,194.0984 530.969938,201.658362 526.855366,224.119295 L526.822595,224.287949 C526.134901,227.634779 520.270249,248.132468 519.101195,251.253238 L519.056596,251.369531 C518.118205,253.760559 502.867535,297.885902 500.067514,306.376171 C499.387037,308.420055 491.766123,330.580883 490.807973,333.378723 C490.717739,333.642224 490.717739,333.642224 490.627518,333.905743 C490.403668,334.559686 490.403668,334.559686 490.180107,335.213152 C488.141919,341.171612 481.509802,360.353182 481.226485,361.244733 L481.181362,361.382396 C478.819249,368.374303 467.97728,399.607755 466.192932,404.500622 C465.050351,407.646156 462.938769,413.776842 461.558968,417.998074 L461.517343,418.12198 C459.833986,423.000496 457.430295,429.250972 456.098574,432.202292 L456.014689,432.382207 C450.314341,444.222407 436.027863,455.177032 423.650111,456.925209 L423.481648,456.947181 C421.56845,457.17607 419.265145,457.500713 418.462974,457.646285 L418.31351,457.673409 L418.163124,457.694839 C413.345334,458.381374 401.440927,455.560829 395.427632,452.715843 C383.330829,447.044268 374.482118,434.200065 373.072682,420.479608 C372.425602,413.925521 374.21616,403.923178 377.643173,393.629771 L377.705498,393.449752 C378.424659,391.449875 379.449048,388.104021 379.983889,385.963695 C381.366301,380.702432 389.241067,353.322846 393.760938,338.099651 C393.993997,337.294477 394.236843,336.457497 394.560391,335.343811 C394.574525,335.295161 394.574525,335.295161 394.588658,335.246516 C396.937686,327.161325 397.596216,324.861817 397.972391,323.35467 L398.014135,323.187424 L398.063044,323.02213 C398.351314,322.047891 398.740707,320.713512 399.156524,319.278308 C392.303407,319.048827 391.29884,319.164021 387.94381,320.428676 C385.977845,321.146137 385.788807,321.215805 385.138287,321.468233 C384.259504,321.809237 383.589019,322.098187 382.973726,322.402754 C378.800177,324.468637 375.092813,327.776494 347.701656,353.910035 C319.44359,380.836968 315.692391,384.430876 311.319019,388.840926 C309.658434,390.515437 308.60375,391.644467 308.030874,392.321869 C307.687039,394.741264 306.812488,399.969985 305.93778,404.794894 C304.518328,413.332637 303.95049,416.808577 303.754928,418.24696 L303.731036,418.42269 L303.69938,418.597189 C303.663488,418.795033 302.893808,423.282205 302.590614,424.936763 C302.37137,426.133202 302.164215,427.203498 301.963213,428.16549 C300.217363,437.614749 299.748122,440.301646 299.491379,442.55609 L299.478657,442.667799 L299.462801,442.779107 C299.385014,443.325161 299.252068,444.145535 299.032258,445.455042 C298.924278,446.098326 298.489587,448.664301 298.408056,449.148034 C298.381786,449.303947 298.381786,449.303947 298.355559,449.459811 C298.281084,449.902568 298.212987,450.309456 298.149046,450.694036 C297.939067,451.956983 297.736903,453.215692 297.258224,456.223052 C296.780582,459.22389 296.574625,460.506639 296.359922,461.799345 C295.410956,468.113522 295.304367,468.747281 292.911545,482.366409 C292.147009,486.755314 291.248139,492.292189 290.99382,494.047706 C289.151758,509.771201 277.30774,522.685173 261.837608,526.165035 C261.744525,526.7791 261.638498,527.519897 261.517996,528.393701 C261.482938,528.647921 261.446696,528.913097 261.408887,529.191851 C261.29478,530.033136 260.917931,532.871134 260.853511,533.344948 C260.570374,535.427451 259.779468,539.99649 259.083042,543.581787 C258.917393,544.552572 258.728166,545.634411 258.481686,547.025658 C258.457014,547.16489 258.457014,547.16489 258.432349,547.303975 C258.482283,547.02245 257.91289,550.225694 257.777096,550.996971 C257.558132,552.240625 257.408662,553.113514 257.312725,553.714643 C256.88182,556.414632 256.567913,558.173916 256.281101,559.120263 C256.314541,559.012872 256.326892,558.967598 256.338547,558.922942 C256.331078,558.952701 256.322809,558.986403 256.31215,559.030839 C256.274333,559.188507 256.221767,559.417179 256.158913,559.698113 C256.028872,560.279349 255.864842,561.03908 255.698683,561.82986 L255.660654,562.001456 C252.092014,577.306297 238.290664,588.068561 221.307657,589.366242 L220.994571,589.394164 C215.735819,604.811999 203.579525,613.776048 187.134853,614.286596 C182.076756,614.48699 177.252669,614.002646 174.117699,612.861412 L173.998452,612.818002 L173.880643,612.770832 C171.515423,611.823816 168.077775,610.015384 165.816109,608.485881 Z M374.048082,68.7525629 C374.034259,68.7552003 374.008627,68.7672359 373.964976,68.7927766 C373.992311,68.7794798 374.020016,68.7660742 374.048082,68.7525629 Z M256.338547,558.922942 C256.33887,558.921703 256.339193,558.920465 256.339515,558.919228 C256.338685,558.922418 256.337487,558.927128 256.335953,558.933248 Z" id="Path" transform="translate(324.904731, 335.883964) scale(1, -1) rotate(39.000000) translate(-324.904731, -335.883964) "></path>
            </g>
            <text id="Ukrainischer-Verein" font-family="Impact" font-size="110" font-style="condensed" font-weight="700" fill="#0057B8">
                <tspan x="399.624512" y="1113">Ukrainischer</tspan>
                <tspan x="454.678223" y="1247">Verein Zug</tspan>
            </text>
        </g>
    </g>
</svg>